<svg width="96" height="96" viewBox="0 0 96 96" fill="none" xmlns="http://www.w3.org/2000/svg" role="img" aria-label="פינוקי">
  <rect width="96" height="96" rx="26" fill="#E8814E"></rect>
  
  <path d="M30 34c-7-3-14 1-15 9-1 7 2 14 9 16 4 1 7-1 8-4l3-18c.4-2.5-2.4-2-5-3z" fill="#B0532A"></path>
  <path d="M66 34c7-3 14 1 15 9 1 7-2 14-9 16-4 1-7-1-8-4l-3-18c-.4-2.5 2.4-2 5-3z" fill="#B0532A"></path>
  
  <path d="M48 26c-13 0-22 9-22 23 0 13 9 23 22 23s22-10 22-23c0-14-9-23-22-23z" fill="#FCF8F4"></path>
  
  <ellipse cx="48" cy="58" rx="13" ry="11" fill="#F5EEE6"></ellipse>
  
  <circle cx="39" cy="45" r="4" fill="#342C25"></circle>
  <circle cx="57" cy="45" r="4" fill="#342C25"></circle>
  <circle cx="40.4" cy="43.6" r="1.3" fill="#FFFFFF"></circle>
  <circle cx="58.4" cy="43.6" r="1.3" fill="#FFFFFF"></circle>
  
  <path d="M48 52c-3 0-5 1.6-5 3.6 0 2.2 2.4 3.4 5 3.4s5-1.2 5-3.4c0-2-2-3.6-5-3.6z" fill="#342C25"></path>
  
  <path d="M48 59v2.4" stroke="#8C8076" stroke-width="2" stroke-linecap="round"></path>
  <path d="M48 61.4c-2 2.4-6.4 2-7.4-1M48 61.4c2 2.4 6.4 2 7.4-1" stroke="#8C8076" stroke-width="2" stroke-linecap="round" fill="none"></path>
  <path d="M45.6 62.6c0-1.3 1.1-2.4 2.4-2.4s2.4 1.1 2.4 2.4v2c0 1.3-1.1 2.4-2.4 2.4s-2.4-1.1-2.4-2.4z" fill="#E8814E"></path>
</svg>