<svg width="240" height="84" viewBox="0 0 240 84" fill="none" xmlns="http://www.w3.org/2000/svg" role="img" aria-label="פינוקי">
  <rect x="156" width="84" height="84" rx="24" fill="#E8814E"></rect>
  <path d="M183 30c-6-2.6-12 .9-13 7.9-.9 6 1.7 12 7.9 14 3.5.9 6-.9 7-3.5l2.6-15.8c.35-2.2-2.1-1.75-4.4-2.6z" fill="#B0532A"></path>
  <path d="M214 30c6-2.6 12 .9 13 7.9.9 6-1.7 12-7.9 14-3.5.9-6-.9-7-3.5l-2.6-15.8c-.35-2.2 2.1-1.75 4.4-2.6z" fill="#B0532A"></path>
  <path d="M198 23c-11.4 0-19.3 7.9-19.3 20.2 0 11.4 7.9 20.2 19.3 20.2s19.3-8.8 19.3-20.2C217.3 30.9 209.4 23 198 23z" fill="#FCF8F4"></path>
  <ellipse cx="198" cy="51" rx="11.4" ry="9.6" fill="#F5EEE6"></ellipse>
  <circle cx="190.1" cy="39.4" r="3.5" fill="#342C25"></circle>
  <circle cx="205.9" cy="39.4" r="3.5" fill="#342C25"></circle>
  <circle cx="191.3" cy="38.2" r="1.1" fill="#FFFFFF"></circle>
  <circle cx="207.1" cy="38.2" r="1.1" fill="#FFFFFF"></circle>
  <path d="M198 45.5c-2.6 0-4.4 1.4-4.4 3.2 0 1.9 2.1 3 4.4 3s4.4-1.1 4.4-3c0-1.8-1.8-3.2-4.4-3.2z" fill="#342C25"></path>
  <path d="M198 51.7v2.1" stroke="#8C8076" stroke-width="1.8" stroke-linecap="round"></path>
  <path d="M198 53.8c-1.8 2.1-5.6 1.8-6.5-.9M198 53.8c1.8 2.1 5.6 1.8 6.5-.9" stroke="#8C8076" stroke-width="1.8" stroke-linecap="round" fill="none"></path>
  <path d="M195.9 54.8c0-1.15 1-2.1 2.1-2.1s2.1.95 2.1 2.1v1.8c0 1.15-1 2.1-2.1 2.1s-2.1-.95-2.1-2.1z" fill="#E8814E"></path>
  <text x="150" y="54" text-anchor="end" font-family="Rubik, sans-serif" font-weight="700" font-size="42" fill="#342C25">פינוקי</text>
</svg>